<?xml version="1.0" encoding="UTF-8" standalone="no"?>
<!-- Created with Inkscape (http://www.inkscape.org/) -->

<svg
   xmlns:dc="http://purl.org/dc/elements/1.1/"
   xmlns:cc="http://creativecommons.org/ns#"
   xmlns:rdf="http://www.w3.org/1999/02/22-rdf-syntax-ns#"
   xmlns:svg="http://www.w3.org/2000/svg"
   xmlns="http://www.w3.org/2000/svg"
   xmlns:sodipodi="http://sodipodi.sourceforge.net/DTD/sodipodi-0.dtd"
   xmlns:inkscape="http://www.inkscape.org/namespaces/inkscape"
   width="744.09448819"
   height="1052.3622047"
   id="svg2"
   version="1.1"
   inkscape:version="0.48.5 r10040"
   sodipodi:docname="shuffleezer.svg"
   inkscape:export-filename="D:\Alexandre\Projects\shuffleezer\shuffleezer-transparent.png"
   inkscape:export-xdpi="180.6087"
   inkscape:export-ydpi="180.6087">
  <defs
     id="defs4">
    <clipPath
       clipPathUnits="userSpaceOnUse"
       id="clipPath74">
      <path
         inkscape:connector-curvature="0"
         d="m 0,354.331 595.275,0 L 595.275,0 0,0 0,354.331 z"
         id="path76" />
    </clipPath>
  </defs>
  <sodipodi:namedview
     id="base"
     pagecolor="#121314"
     bordercolor="#666666"
     borderopacity="1.0"
     inkscape:pageopacity="0"
     inkscape:pageshadow="2"
     inkscape:zoom="4.5871904"
     inkscape:cx="211.43343"
     inkscape:cy="683.66138"
     inkscape:document-units="px"
     inkscape:current-layer="layer1"
     showgrid="false"
     inkscape:window-width="1920"
     inkscape:window-height="1027"
     inkscape:window-x="-8"
     inkscape:window-y="-8"
     inkscape:window-maximized="1" />
  <metadata
     id="metadata7">
    <rdf:RDF>
      <cc:Work
         rdf:about="">
        <dc:format>image/svg+xml</dc:format>
        <dc:type
           rdf:resource="http://purl.org/dc/dcmitype/StillImage" />
        <dc:title></dc:title>
      </cc:Work>
    </rdf:RDF>
  </metadata>
  <g
     inkscape:label="Layer 1"
     inkscape:groupmode="layer"
     id="layer1">
    <path
       style="fill:#0d7bbc;fill-opacity:1"
       d="M 330.375 280.09375 C 326.30607 280.09375 324.98873 280.64857 321.625 283.6875 C 314.71241 289.93261 314.05128 297.15027 319.6875 304.3125 C 321.28518 306.34275 322.59375 308.25525 322.59375 308.5625 C 322.59375 308.86975 321.13125 309.121 319.34375 309.125 C 313.81577 309.13691 299.79654 312.9482 291.90625 316.59375 C 281.9298 321.20315 273.64488 327.26527 264.78125 336.4375 C 264.78125 336.4375 257.83715 340.48926 257.5 343.96875 C 257.06641 348.44355 264.84375 355.28125 264.84375 355.28125 C 266.99219 358.59578 267.65752 359.64113 269.15625 361.96875 L 280.6875 361.96875 C 288.93733 351.92584 299.21977 344.35655 308.96875 341.21875 C 315.54079 339.10348 323.59375 337.58396 323.59375 338.46875 C 323.59375 338.76767 322.48415 340.60574 321.15625 342.5625 C 315.56016 350.80881 317.65817 360.42578 325.875 364.15625 C 335.22556 368.40144 338.21204 366.81438 351.875 350.25 C 358.06604 342.74426 364.62217 334.68142 366.46875 332.3125 C 370.6365 326.96584 371.55547 321.09686 368.90625 316.4375 C 366.91675 312.93844 340.46671 283.82809 337.1875 281.53125 C 336.06169 280.7427 333.00104 280.09375 330.375 280.09375 z "
       id="path3004-3" />
    <path
       style="fill:#ffffff;fill-opacity:1;stroke:none;stroke-opacity:1"
       d="M 163.71875 300.46875 C 158.87294 300.52893 154.96776 301.07356 152.875 302.125 C 145.30006 305.93079 142.33503 316.61098 146.84375 323.90625 C 149.59052 328.35062 152.36413 329.15813 166.84375 329.75 C 187.87761 330.60976 199.23767 335.01272 212.21875 347.375 C 216.13513 351.10469 219.4934 354.9681 224.53125 361.96875 L 259.8125 361.96875 C 243.78555 338.20955 235.03299 328.38739 221.46875 318.4375 C 214.34351 313.21086 199.46239 306.03586 191.40625 303.9375 C 182.43567 301.60096 171.79511 300.36844 163.71875 300.46875 z M 332.21875 388.59375 C 329.17636 388.7075 326.03406 389.58064 323.96875 391.09375 C 317.2346 396.02741 316.42406 404.33716 321.90625 412.21875 L 324.9375 416.5625 L 320.625 415.90625 C 315.02498 415.04002 307.35645 412.61692 302.34375 410.125 C 295.08347 406.51576 288.89644 401.4701 281.4375 392.46875 L 245.28125 392.46875 C 250.41503 399.97885 254.69951 406.11944 256.125 407.875 C 273.8516 429.70614 291.69941 440.91855 314.34375 444.4375 C 318.74375 445.12127 322.49478 445.81028 322.6875 445.96875 C 322.88021 446.12722 321.58393 448.0693 319.78125 450.3125 C 317.11739 453.62732 316.46545 455.31985 316.40625 459.3125 C 316.32401 464.86384 318.40541 468.4237 323.84375 472.125 C 327.45642 474.58376 332.32448 475.00734 336.25 473.21875 C 339.44234 471.76422 366.96034 442.01734 369.3125 437.46875 C 371.63873 432.97033 370.84256 427.40174 367.21875 422.59375 C 358.02758 410.39911 341.21701 391.10654 338.59375 389.75 C 336.90304 388.8757 334.58505 388.50528 332.21875 388.59375 z "
       id="path3004-4" />
    <rect
       style="fill:none;stroke:none;stroke-width:0.86282669999999995;stroke-opacity:1"
       id="rect3826"
       width="255.13718"
       height="255.13718"
       x="129.56766"
       y="250.3219" />
    <rect
       style="fill:#12a714;fill-opacity:0"
       id="rect3170"
       width="128.14218"
       height="35.049831"
       x="184.91245"
       y="359.46365" />
    <path
       inkscape:connector-curvature="0"
       d="m 189.08633,390.2014 7.94011,0 0,-2.40589 -7.94011,0 0,2.40589 z"
       style="fill:#ffffff;fill-opacity:1;fill-rule:nonzero;stroke:none"
       id="path14" />
    <path
       inkscape:connector-curvature="0"
       d="m 189.08633,387.07393 7.94011,0 0,-2.4061 -7.94011,0 0,2.4061 z"
       style="fill:#ffffff;fill-opacity:1;fill-rule:nonzero;stroke:none"
       id="path16" />
    <path
       inkscape:connector-curvature="0"
       d="m 189.08633,383.94626 7.94011,0 0,-2.4059 -7.94011,0 0,2.4059 z"
       style="fill:#ffffff;fill-opacity:1;fill-rule:nonzero;stroke:none"
       id="path18" />
    <path
       inkscape:connector-curvature="0"
       d="m 189.08633,380.81836 7.94011,0 0,-2.40568 -7.94011,0 0,2.40568 z"
       style="fill:#ffffff;fill-opacity:1;fill-rule:nonzero;stroke:none"
       id="path20" />
    <path
       inkscape:connector-curvature="0"
       d="m 189.08633,377.6894 7.94011,0 0,-2.40525 -7.94011,0 0,2.40525 z"
       style="fill:#ffffff;fill-opacity:1;fill-rule:nonzero;stroke:none"
       id="path22" />
    <path
       inkscape:connector-curvature="0"
       d="m 197.98897,390.2014 7.94009,0 0,-2.40589 -7.94009,0 0,2.40589 z"
       style="fill:#ffffff;fill-opacity:1;fill-rule:nonzero;stroke:none"
       id="path24" />
    <path
       inkscape:connector-curvature="0"
       d="m 197.98897,387.07393 7.94009,0 0,-2.4061 -7.94009,0 0,2.4061 z"
       style="fill:#ffffff;fill-opacity:1;fill-rule:nonzero;stroke:none"
       id="path26" />
    <path
       inkscape:connector-curvature="0"
       d="m 197.98897,383.94626 7.94009,0 0,-2.4059 -7.94009,0 0,2.4059 z"
       style="fill:#ffffff;fill-opacity:1;fill-rule:nonzero;stroke:none"
       id="path28" />
    <path
       inkscape:connector-curvature="0"
       d="m 206.89159,390.2014 7.94074,0 0,-2.40589 -7.94074,0 0,2.40589 z"
       style="fill:#ffffff;fill-opacity:1;fill-rule:nonzero;stroke:none"
       id="path30" />
    <path
       inkscape:connector-curvature="0"
       d="m 206.89159,387.07393 7.94074,0 0,-2.4061 -7.94074,0 0,2.4061 z"
       style="fill:#ffffff;fill-opacity:1;fill-rule:nonzero;stroke:none"
       id="path32" />
    <path
       inkscape:connector-curvature="0"
       d="m 206.89159,383.94626 7.94074,0 0,-2.4059 -7.94074,0 0,2.4059 z"
       style="fill:#ffffff;fill-opacity:1;fill-rule:nonzero;stroke:none"
       id="path34" />
    <path
       inkscape:connector-curvature="0"
       d="m 206.89159,380.81836 7.94074,0 0,-2.40568 -7.94074,0 0,2.40568 z"
       style="fill:#ffffff;fill-opacity:1;fill-rule:nonzero;stroke:none"
       id="path36" />
    <path
       inkscape:connector-curvature="0"
       d="m 206.89159,377.6894 7.94074,0 0,-2.40525 -7.94074,0 0,2.40525 z"
       style="fill:#ffffff;fill-opacity:1;fill-rule:nonzero;stroke:none"
       id="path38" />
    <path
       inkscape:connector-curvature="0"
       d="m 206.89159,374.56236 7.94074,0 0,-2.40653 -7.94074,0 0,2.40653 z"
       style="fill:#ffffff;fill-opacity:1;fill-rule:nonzero;stroke:none"
       id="path40" />
    <path
       inkscape:connector-curvature="0"
       d="m 206.89159,371.4349 7.94074,0 0,-2.40653 -7.94074,0 0,2.40653 z"
       style="fill:#ffffff;fill-opacity:1;fill-rule:nonzero;stroke:none"
       id="path42" />
    <path
       inkscape:connector-curvature="0"
       d="m 215.79464,390.2014 7.94011,0 0,-2.40589 -7.94011,0 0,2.40589 z"
       style="fill:#ffffff;fill-opacity:1;fill-rule:nonzero;stroke:none"
       id="path44" />
    <path
       inkscape:connector-curvature="0"
       d="m 215.79464,387.07393 7.94011,0 0,-2.4061 -7.94011,0 0,2.4061 z"
       style="fill:#ffffff;fill-opacity:1;fill-rule:nonzero;stroke:none"
       id="path46" />
    <path
       inkscape:connector-curvature="0"
       d="m 215.79464,383.94626 7.94011,0 0,-2.4059 -7.94011,0 0,2.4059 z"
       style="fill:#ffffff;fill-opacity:1;fill-rule:nonzero;stroke:none"
       id="path48" />
    <path
       inkscape:connector-curvature="0"
       d="m 215.79464,380.81836 7.94011,0 0,-2.40568 -7.94011,0 0,2.40568 z"
       style="fill:#ffffff;fill-opacity:1;fill-rule:nonzero;stroke:none"
       id="path50" />
    <path
       inkscape:connector-curvature="0"
       d="m 215.79464,377.6894 7.94011,0 0,-2.40525 -7.94011,0 0,2.40525 z"
       style="fill:#ffffff;fill-opacity:1;fill-rule:nonzero;stroke:none"
       id="path52" />
    <path
       inkscape:connector-curvature="0"
       d="m 224.6977,390.2014 7.9401,0 0,-2.40589 -7.9401,0 0,2.40589 z"
       style="fill:#ffffff;fill-opacity:1;fill-rule:nonzero;stroke:none"
       id="path54" />
    <path
       inkscape:connector-curvature="0"
       d="m 224.6977,387.07393 7.9401,0 0,-2.4061 -7.9401,0 0,2.4061 z"
       style="fill:#ffffff;fill-opacity:1;fill-rule:nonzero;stroke:none"
       id="path56" />
    <path
       inkscape:connector-curvature="0"
       d="m 224.6977,383.94583 7.9401,0 0,-2.40653 -7.9401,0 0,2.40653 z"
       style="fill:#ffffff;fill-opacity:1;fill-rule:nonzero;stroke:none"
       id="path58" />
    <path
       inkscape:connector-curvature="0"
       d="m 224.6977,380.81836 7.9401,0 0,-2.40674 -7.9401,0 0,2.40674 z"
       style="fill:#ffffff;fill-opacity:1;fill-rule:nonzero;stroke:none"
       id="path60" />
    <path
       inkscape:connector-curvature="0"
       d="m 224.6977,377.6894 7.9401,0 0,-2.40589 -7.9401,0 0,2.40589 z"
       style="fill:#ffffff;fill-opacity:1;fill-rule:nonzero;stroke:none"
       id="path62" />
    <path
       inkscape:connector-curvature="0"
       d="m 224.6977,374.56151 7.9401,0 0,-2.40546 -7.9401,0 0,2.40546 z"
       style="fill:#ffffff;fill-opacity:1;fill-rule:nonzero;stroke:none"
       id="path64" />
    <path
       inkscape:connector-curvature="0"
       d="m 224.6977,371.43255 7.9401,0 0,-2.40547 -7.9401,0 0,2.40547 z"
       style="fill:#ffffff;fill-opacity:1;fill-rule:nonzero;stroke:none"
       id="path66" />
    <path
       inkscape:connector-curvature="0"
       d="m 224.6977,368.30508 7.9401,0 0,-2.4061 -7.9401,0 0,2.4061 z"
       style="fill:#ffffff;fill-opacity:1;fill-rule:nonzero;stroke:none"
       id="path68" />
    <g
       transform="matrix(0.21399002,0,0,-0.21399002,185.74253,414.73407)"
       id="g70">
      <g
         id="g72"
         clip-path="url(#clipPath74)">
        <g
           id="g78"
           transform="translate(233.7627,239.4531)">
          <path
             inkscape:connector-curvature="0"
             d="m 0,0 27.818,0 c 28.008,0 30.653,-9.801 30.653,-46.104 l 0,-37.103 c 0,-31.981 -6.434,-41.603 -33.739,-41.603 L 0,-124.81 0,0 z m 16.858,-110.289 8.716,0 c 12.796,0 14.894,6.744 14.894,28.182 l 0,42.866 c 0,18.502 -1.587,24.721 -16.272,24.721 l -7.338,0 0,-95.769 z"
             style="fill:#ffffff;fill-opacity:1;fill-rule:nonzero;stroke:none"
             id="path80" />
        </g>
        <g
           id="g82"
           transform="translate(298.9731,239.4531)">
          <path
             inkscape:connector-curvature="0"
             d="m 0,0 47.224,0 0,-14.837 -30.359,0 0,-39.137 28.108,0 0,-14.618 -28.108,0 0,-41.394 30.359,0 0,-14.824 L 0,-124.81 0,0 z"
             style="fill:#ffffff;fill-opacity:1;fill-rule:nonzero;stroke:none"
             id="path84" />
        </g>
        <g
           id="g86"
           transform="translate(352.9463,239.4531)">
          <path
             inkscape:connector-curvature="0"
             d="m 0,0 47.224,0 0,-14.837 -30.359,0 0,-39.137 28.113,0 0,-14.618 -28.113,0 0,-41.394 30.359,0 0,-14.824 L 0,-124.81 0,0 z"
             style="fill:#ffffff;fill-opacity:1;fill-rule:nonzero;stroke:none"
             id="path88" />
        </g>
        <g
           id="g90"
           transform="translate(468.7568,239.4531)">
          <path
             inkscape:connector-curvature="0"
             d="m 0,0 47.222,0 0,-14.837 -30.359,0 0,-39.137 28.112,0 0,-14.618 -28.112,0 0,-41.394 30.359,0 0,-14.824 L 0,-124.81 0,0 z"
             style="fill:#ffffff;fill-opacity:1;fill-rule:nonzero;stroke:none"
             id="path92" />
        </g>
        <g
           id="g94"
           transform="translate(406.915,129.2539)">
          <path
             inkscape:connector-curvature="0"
             d="m 0,0 38.858,95.576 -38.858,0 0,14.615 55.091,0 0,-14.615 L 16.904,0 l 38.187,0 0,-14.618 L 0,-14.61 0,0 z"
             style="fill:#ffffff;fill-opacity:1;fill-rule:nonzero;stroke:none"
             id="path96" />
        </g>
        <g
           id="g98"
           transform="translate(522.7305,239.4453)">
          <path
             inkscape:connector-curvature="0"
             d="m 0,0 26.982,0 c 25.242,0 27.006,-6.429 27.006,-33.741 0,-16.766 -1.579,-24.96 -15.758,-29.28 11.753,-1.21 15.784,-7.346 15.784,-19.093 l 0,-27.139 c 0,-4.502 0.032,-10.361 1.088,-15.549 l -16.872,0 c -1.732,3.114 -1.111,6.177 -1.111,11.194 l 0,28.173 c 0,11.756 -2.23,14.601 -13.643,14.601 l -6.61,0 0,-53.976 L 0,-124.802 0,0 z m 16.866,-55.091 5.229,0 c 13.66,0 15.744,1.686 15.744,20.352 0,18.499 -1.659,20.131 -12.364,20.131 l -8.609,0 0,-40.483 z"
             style="fill:#ffffff;fill-opacity:1;fill-rule:nonzero;stroke:none"
             id="path100" />
        </g>
      </g>
      <rect
         style="fill:#12a714;fill-opacity:0"
         id="rect3941"
         width="126.87502"
         height="32.045834"
         x="185.7346"
         y="360.87137"
         transform="matrix(4.6731151,0,0,-4.6731151,-867.99623,1938.1001)"
         ry="4.3599672" />
    </g>
    <rect
       style="fill:#ffffff;fill-opacity:0"
       id="rect3080"
       width="132.34816"
       height="35.891029"
       x="182.66925"
       y="359.18326" />
    <g
       id="g3011"
       transform="translate(33.212591,4.2854956)"
       style="fill:#84bd00;fill-opacity:1">
      <path
         style="fill:#0d7bbc;fill-opacity:1"
         d="M 224.4375 392.46875 C 217.30253 402.36411 205.70288 413.54295 198.78125 417.15625 C 189.4929 422.00505 179.4072 424.39425 165.28125 425.09375 C 151.52455 425.77496 148.15594 426.87453 145.8125 431.40625 C 143.89801 435.10838 143.84503 442.68913 145.71875 446.3125 C 147.56631 449.88529 149.3978 451.3466 154.03125 453 C 158.8873 454.73287 167.50583 454.7501 178.78125 453.03125 C 195.86856 450.42644 210.08546 444.3478 224.09375 433.6875 C 230.81711 428.57103 244.29937 415.00436 246.28125 411.375 C 246.89048 410.25932 244.93453 406.65425 239.15625 398.375 C 237.59509 396.13814 236.28087 394.31718 234.96875 392.46875 L 224.4375 392.46875 z "
         transform="translate(-33.212591,-4.2854956)"
         id="path3004" />
    </g>
  </g>
</svg>
